/* XPM */
static char *burger[] = {
/* columns rows colors chars-per-pixel */
"64 64 7 1 ",
"  c None",
". c #16161B",
"X c #A12823",
"o c #A25426",
"O c #F17716",
"+ c #71BA1A",
"@ c #F1AF15",
/* pixels */
"                                                                ",
"                                                                ",
"                                                                ",
"                                                                ",
"                                                                ",
"                                                                ",
"                                                                ",
"                                                                ",
"                                                                ",
"                                                                ",
"                                                                ",
"                                                                ",
"                                                                ",
"                                                                ",
"                                                                ",
"                                                                ",
"                                                                ",
"                                                                ",
"                                                                ",
"                      ....................                      ",
"                     ..ooooooOooooooooooo..                     ",
"                    ..oooOooooooooOooOoooo..                    ",
"                   ..oooooooOoooOoooooooooo..                   ",
"                   .oooooooooooooooooooooooo.                   ",
"                 ..............................                 ",
"                 .++++++++++++++++++++++++++++.                 ",
"                 .++++++++++++++++++++++++++++.                 ",
"                 ..............................                 ",
"                   .oooOoooooOooooOooooooooo.                   ",
"                   .ooooooooooooooooooOooooo.                   ",
"                 ..............................                 ",
"                 .@@@@@@@@@@@@@@@@@@@@@@@@@@@@.                 ",
"                 .@@@@@@@@@@@@@@@@@@@@@@@@@@@@.                 ",
"                 ..............................                 ",
"                   .ooooooOooooooooOoooooooo.                   ",
"                   .oooooooooooOoooooooooooo.                   ",
"                 ..............................                 ",
"                 .XXXXXXXXXXXXXXXXXXXXXXXXXXXX.                 ",
"                 .XXXXXXXXXXXXXXXXXXXXXXXXXXXX.                 ",
"                 ..............................                 ",
"                   .ooOoooooOoooooooOooooooo.                   ",
"                   ..oooooooooooOooooooOooo..                   ",
"                    ..oooOoooOooooOooOoooo..                    ",
"                     ......................                     ",
"                                                                ",
"                                                                ",
"                                                                ",
"                                                                ",
"                                                                ",
"                                                                ",
"                                                                ",
"                                                                ",
"                                                                ",
"                                                                ",
"                                                                ",
"                                                                ",
"                                                                ",
"                                                                ",
"                                                                ",
"                                                                ",
"                                                                ",
"                                                                ",
"                                                                ",
"                                                                "
};
