/* XPM */
static char *cartman[] = {
/* columns rows colors chars-per-pixel */
"64 64 10 1 ",
"  c #080A0F",
". c #16161B",
"X c #603C20",
"o c #556E1C",
"O c #A12823",
"+ c #71BA1A",
"@ c #F9C629",
"# c #3CB0DA",
"$ c #D2B2A1",
"% c #EAEDED",
/* pixels */
"++++++++++++++++++++++++++++++++++++++++++++++++++++++++++++++++",
"++++++++++++++++++++++++++++++++++++++++++++++++++++++++++++++++",
"++++++++++++++++++++++++++++++++++++++++++++++++++++++++++++++++",
"+++++++++++++++++++o+++++++o++++oo++++++++++++++++++++++++++++++",
"++++++++++++++++o++o+++++++o++++o++++++++++++++++o++++++++++++++",
"++++++o++++++++++++o+++++++o++++oo+++++++o+++o+++oo+++++++++++++",
"++++++o++++++++++++oo++++++++++++o++o++++o+++o++++o+++++++++++++",
"++++++++o++o++++++++++++++++++++++++o++++++++o++++++++++++++++++",
"++++++++o++o+++++++++++++++++++++++++o++++++++++++++++o+++++++++",
"+++++++++++o+++++++++++++++..........o++++++++++++++++o++++o++++",
"++++o++++++++++++++o+++o+++.@@@@@@@@.oo+++++++++o+++++o++++o++++",
"++++oo++++++++o++++++++.....@@@@@@@@.....+++o+++o+++++oo+++o++++",
"+++++o++++++++oo++++++..###..........###..++o+++oo+++++o+++oo+++",
"+++++o+++++++++o+++++..##################..+o++++o++++++++++o+++",
"+++++++++o++++++++++..######@@@@@@@@######..o++++o++++++++++o+++",
"+++++++++o+++++++++..###@@@@........@@@@###..+++++++++++++++o+++",
"+++++++++o++++++++..###@.....$$$$$$.....@###..++++++++++++++++++",
"++++oo+++++++++++..###@..$$$$$$$$$$$$$$..@###..++++++++++o++++++",
"++++o++++o++++o++.###@..$$$$$$$$$$$$$$$$..@###.+++++o++++o++++++",
"++++++++oo+o++oo+.##@..$$$$$$$$$$$$$$$$$$..@##.+++++o++++o++++++",
"+++++++++++o+++o+.#@..$$$$$%%%%$$%%%%$$$$$..@#.+++++o++++o++++++",
"+++++++++++++++o+.@..$$$$$%%%%%%%%%%%%$$$$$..@.o++++o++++o++++++",
"+++++++++++++++oo...$$$$$%%%%%%%%%%%%%%$$$$$...o+++++++++o++++++",
"++++++++++++++++o.$$$$$$$%%%..%%%%..%%%$$$$$$$.+++++++++++++++++",
"+++++++++++++++++.$$$$$$$%%%..%%%%..%%%$$$$$$$.+++++++++++++++++",
"+++++o++++o++++++.$$$$$$$%%%%%%%%%%%%%%$$$$$$$.+++++++++++++++++",
"+++++o++++o++++++.$$$$$$$$%%%%%%%%%%%%$$$$$$$$.+++++o+++++++++++",
"+++++oo+++oo+++++.$$$$$$$$%%%%%$$%%%%%$$$$$$$$.+++++o++++oo+++++",
"++++++o++++++++++.$$$$$$$$$%%%%$$%%%%$$$$$$$$$.+++++oo++++o+++++",
"+++++++++++++++++.$$$$$$$$$$$$$$$$$$$$$$$$$$$$.++++++o++++o+++++",
"++++++++o++++++++.$$$$$$$$$$$$$$$$$$$$$$$$$$$$.+++++++++++o+++++",
"++++++++oo+++++++.$$$$$$$$$$$......$$$$$$$$$$$.+++++++++++++++++",
"++++o++++o++o++++.  .$$$$$$$$$$$$$$$$$$$$$$.  .++oo+++++++++++++",
"++++oo++++++o+++. OO $$$$$$$$$$$$$$$$$$$$$$ OO .++o++++o++++++++",
"+++++o+++++++++. OOO.                      .OOO .+o++++o+++oo+++",
"++++++++++++++. OOOO OOOOOOOOOO  OOOOOOOOOO OOOO .oo+++o++++o+++",
"++++++++++++++ OOO. .OOOOOOOOOO  OOOOOOOOOO. OOOO +o+++o++++o+++",
"++++++++++++++ @@@ OOOOOOOOOOOO  OOOOOOOOOOO. @@@ +++++oo+++o+++",
"++++++++++++++ @@@ OOOOOOOOOOOO  OOOOOOOOOOOO @@@ ++++++o+++o+++",
"++++++++o+++++ @@@ OOOOOOOOOOOO  OOOOOOOOOOOO @@@ ++o+++++++++++",
"++++++++o+++++     OOOOOOOOOOOO  OOOOOOOOOOOO     ++o+++++++++++",
"++++o+++o++++o++++ OOOOOOOOOOOO  OOOOOOOOOOOO +o++++oo+++++o++++",
"++++o+++o+++++++++.XXXXXXXXXXXX..XXXXXXXXXXXX.+++++++o+++++o++++",
"++++oo++o+++++++++.XXXXXXXXXXXX..XXXXXXXXXXXX.+++++++o+++++o++++",
"+++++oo+++++++++++.XXXXXXXXXXXX..XXXXXXXXXXXX.++++++++o++++o++++",
"++++++++++++++o+++.XXXXXXXXXXXX..XXXXXXXXXXXX.+++o++++++++++++++",
"++++++++++++++o+++.XXXXXXXXXXXX..XXXXXXXXXXXX.+++o++++++++++++++",
"++++++++++++++o+................................+o++++++++++++++",
"++++++++o+++++o+++o+++++++++++++++++++++o+o+o++++o++++++++++++++",
"++++++++o+++++o+++o++++++++++++++++++o++ooo++++++oo++++o++++++++",
"++++++++oo++++++++oo+++++++++++o++oo+oo+++o++++++++++++o++++++++",
"+++++++++o+++++++++o+++o+++++++o+++o++o+++o++++++++++++o++++++++",
"+++++++++++++++++++o+++oo++++++oo++o++o+++o++++++++++++++++++o++",
"+++++++++++++++++++o++++o+++++++o++oo++++++++++++o+++++++++++o++",
"++++++++++++++++++++++++o++++++++++++++++++++++++oo++++++++++o++",
"+++++++++++++++++o++++++oo++++++++++++++++++++++++o++++++++++o++",
"+++++++++++++++++o+++++++o+++++++++++++++oo+++++++o+++++o++++o++",
"+++++++++++++++++oo++++++o++++++++++o+++++o+++++++oo++++o+++++++",
"+++++++++++++++++++++++++++++oo+++++oo++++oo+++++++o++++oo++++++",
"++++++++o+++++++++++++++++++++o++++++oo++++o++++++++++++++++++++",
"++++++++oo++++++++++++++++++++oo++++++o++++oo+++++++++++++++o+++",
"+++++++++++++++++++++++++++++++o++++++++++++o+++++++++++++++o+++",
"++++++++++++++++++++++++++++++++++++++++++++++++++++++++++++o+++",
"++++++++++++++++++++++++++++++++++++++++++++++++++++++++++++++++"
};
