/* XPM */
static char *cartman_exit[] = {
/* columns rows colors chars-per-pixel */
"64 64 11 1 ",
"  c #080A0F",
". c #16161B",
"X c #603C20",
"o c #556E1C",
"O c #734829",
"+ c #A12823",
"@ c #71BA1A",
"# c #F9C629",
"$ c #3CB0DA",
"% c #D2B2A1",
"& c #EAEDED",
/* pixels */
"@@@@@@@@@@@@@@@@@@@@@@@@@@@@@@@@@@@@@@@@@@@@@@@@@@@@@@@@@@@@@@@@",
"@@@@@@@@@@@@@@@@@@@@@@@@@@@@@@@@@@@@@@@@@@@@@@@@@@@@@@@@@@@@@@@@",
"@@@@@@@@@@@@@@@@@@@@@@@@@@@@@@@@@@@@@@@@@@@@@@@@@@@@@@@@@@@@@@@@",
"@@@@@@@@@@@@@@@@@@@o@@@@@@@o@@@@oo@@@@@@@@@@@@@@@@@@@@@@@@@@@@@@",
"@@@@@@@@@@@@@@@@o@@o@@@@@@@o@@@@o@@@@@@@@@@@@@@@@o@@@@@@@@@@@@@@",
"@@@@@@o@@@@@@@@@@@@o@@@@@@@o@@@@oo@@@@@@@o@@@o@@@oo@@@@@@@@@@@@@",
"@@@@@@.....................................................@@@@@",
"@@@@@@.XXXXXXXXXXXXXXXXXXXXXXXXXXXXXXXXXXXXXXXXXXXXXXXXXXX.@@@@@",
"@@@@@@.XOOOOOOOOOXOOOOOOOOOOOOOOOOOOOOOXXOOOOOOOOOOOOOOOOX.@@@@@",
"@@@@@@.XOOOOOOOOXXOOOOOOOOO..........OOXOOOOOOOOOOOOOOOOOX.o@@@@",
"@@@@o@.XOOOOOOOOXOOOOOOOOOO.########.XXXOOOOOOOOOOOOOOOOOX.o@@@@",
"@@@@oo.XOOOOOOOOXOOOOOO.....########.....OOOOOOOOOOOOOOOOX.o@@@@",
"@@@@@o.XOOOOOOOOXXOOOO..$$$..........$$$..OOOOOOOOOOOOOOOX.oo@@@",
"@@@@@o.XOOOOOOOOOXXOO..$$$$$$$$$$$$$$$$$$..OOOOOOOOOOOOOOX.@o@@@",
"@@@@@@.XOOOOOOOOOOXX..$$$$$$########$$$$$$..OOOOOOOOOOOOOX.@o@@@",
"@@@@@@.XOOOOOOOOOOO..$$$####........####$$$..OOOOOOOOOOOOX.@o@@@",
"@@@@@@.XOOOOOOOOOO..$$$#.....%%%%%%.....#$$$..OOOOOOOOOOOX.@@@@@",
"@@@@oo.XOOOOOOOOO..$$$#..%%%%%%%%%%%%%%..#$$$..OOOOOOOOOOX.@@@@@",
"@@@@o@.XOOOOOOOOO.$$$#..%%%%%%%%%%%%%%%%..#$$$.OOOOOOOOOOX.@@@@@",
"@@@@@@.XOOOOOOOOO.$$#..%%%%%%%%%%%%%%%%%%..#$$.OOOOOOOOOOX.@@@@@",
"@@@@@@.XOOOOOOOOO.$#..%%%%%&&&&%%&&&&%%%%%..#$.OOOOOOOOOOX.@@@@@",
"@@@@@@.XOOOOOOOOO.#..%%%%%&&&&&&&&&&&&%%%%%..#.OOOOOOOOOOX.@@@@@",
"@@@@@@.XOOOOOOOOO...%%%%%&&&&&&&&&&&&&&%%%%%...OOOOOOOOOOX.@@@@@",
"@@@@@@.XXXXOOOOOO.%%%%%%%&&&..&&&&..&&&%%%%%%%.OOOOOOOOOOX.@@@@@",
"@@@@@@.XOOXXXXOOO.%%%%%%%&&&..&&&&..&&&%%%%%%%.OOOOOOOOOOX.@@@@@",
"@@@@@o.XOOOOOXXXO.%%%%%%%&&&&&&&&&&&&&&%%%%%%%.OOOOOOOOOOX.@@@@@",
"@@@@@o.XOOOOOOOXX.%%%%%%%%&&&&&&&&&&&&%%%%%%%%.OOOOOOOOOOX.@@@@@",
"@@@@@o.XOOOOOOOOO.%%%%%%%%&&&&&%%&&&&&%%%%%%%%.OOOOOOOOOOX.@@@@@",
"@@@@@@.XOOOOOOOOO.%%%%%%%%%&&&&%%&&&&%%%%%%%%%.OOOOOOOOOOX.@@@@@",
"@@@@@@.XOOOOOOOOO.%%%%%%%%%%%%%%%%%%%%%%%%%%%%.OOOOOOOOOOX.@@@@@",
"@@@@@@.XOOOOOOOOO.%%%%%%%%%%%%%%%%%%%%%%%%%%%%.OOOOOOOOOOX.@@@@@",
"@@@@@@.XOOOOOOOOO.%%%%%%%%%%%......%%%%%%%%%%%.OOOOOOOOOOX.@@@@@",
"@@@@o@.XOOOOOOOOO.  .%%%%%%%%%%%%%%%%%%%%%%.  .OOOOOOOOOOX.@@@@@",
"@@@@oo.XOOOOOOOO. ++ %%%%%%%%%%%%%%%%%%%%%% ++ .OOOOOOOOOX.@@@@@",
"@@@@@o.XOOOOOOO. +++.                      .+++ .OOOOOOOOX.oo@@@",
"@@@@@@.XOOOOOO. ++++ ++++++++++  ++++++++++ ++++ .OOOOOOOX.@o@@@",
"@@@@@@.XOOOOOO +++. .++++++++++  ++++++++++. ++++ XOOOOOOX.@o@@@",
"@@@@@@.XOOOOOX ### ++++++++++++  +++++++++++. ### XXXXXOOX.@o@@@",
"@@@@@@.XOOOOXX ### ++++++++++++  ++++++++++++ ### OOOOXXXX.@o@@@",
"@@@@@@.XOOOXXO ### ++++++++++++  ++++++++++++ ### OOOOOOOX.@@@@@",
"@@@@@@.XOOXXOO     ++++++++++++  ++++++++++++     OOOOOOOX.@@@@@",
"@@@@o@.XOXXOOOOOOO ++++++++++++  ++++++++++++ OOOOOOOOOOOX.o@@@@",
"@@@@o@.XXXOOOOOOOO.XXXXXXXXXXXX..XXXXXXXXXXXX.OOOOOOOOOOOX.o@@@@",
"@@@@oo.XOOOOOOOOOO.XXXXXXXXXXXX..XXXXXXXXXXXX.OOOOOOOOOOOX.o@@@@",
"@@@@@o.XOOOOOOOOOO.XXXXXXXXXXXX..XXXXXXXXXXXX.OOOOOOOOOOOX.o@@@@",
"@@@@@@.XOOOOOOOOOO.XXXXXXXXXXXX..XXXXXXXXXXXX.OOOOOOOOOOOX.@@@@@",
"@@@@@@.XOOOOOOOOOO.XXXXXXXXXXXX..XXXXXXXXXXXX.OOOOOOOOOOOX.@@@@@",
"@@@@@@.XOOOOOOOO................................OOOOOOOOOX.@@@@@",
"@@@@@@.XOOOOOOOOOOOOOOOOOOOOOOOOOOOOOOXOOOOOOOOOOOOOOOOOOX.@@@@@",
"@@@@@@.XOOOOOOOOOOOOOOOOOOOOOOOOOOOOOOXOOOOOOOOOOOOOOOOOOX.@@@@@",
"@@@@@@.XOOOOOOOOOOOOOOOOOOOOOOOOOOOOOOXXOOOOOOOOOOOOOOOOOX.@@@@@",
"@@@@@@.XOOOOOOOOOOOOOOOOOOOOOOOOOOOOOOOXOOOOOOOOOOOOOOOOOX.@@@@@",
"@@@@@@.XOOOOOOOOOOOOOOOOOOOOOOOOOOOOOOOXXOOOOOOOOOOOOOOOOX.@@o@@",
"@@@@@@.XOOOOOOOOOOOOOOOOOOOOOOOOOOOOOOOOXOOOOOOOOOOOOOOOOX.@@o@@",
"@@@@@@.XOOOOOOOOOOOOOOOOOOOOOOOOOOOOOOOOXOOOOOOOOOOOOOOOOX.@@o@@",
"@@@@@@.XOOOOOOOOOOOOOOOOOOOOOOOOOOOOOOOOXOOOOOOOOOOOOOOOOX.@@o@@",
"@@@@@@.XOOOOOOOOOOOOOOOOOOOOOOOOOOOOOOOOXOOOOOOOOOOOOOOOOX.@@o@@",
"@@@@@@.XXXXXXXXXXXXXXXXXXXXXXXXXXXXXXXXXXXXXXXXXXXXXXXXXXX.@@@@@",
"@@@@@@.....................................................@@@@@",
"@@@@@@@@o@@@@@@@@@@@@@@@@@@@@@o@@@@@@oo@@@@o@@@@@@@@@@@@@@@@@@@@",
"@@@@@@@@oo@@@@@@@@@@@@@@@@@@@@oo@@@@@@o@@@@oo@@@@@@@@@@@@@@@o@@@",
"@@@@@@@@@@@@@@@@@@@@@@@@@@@@@@@o@@@@@@@@@@@@o@@@@@@@@@@@@@@@o@@@",
"@@@@@@@@@@@@@@@@@@@@@@@@@@@@@@@@@@@@@@@@@@@@@@@@@@@@@@@@@@@@o@@@",
"@@@@@@@@@@@@@@@@@@@@@@@@@@@@@@@@@@@@@@@@@@@@@@@@@@@@@@@@@@@@@@@@"
};
