/* XPM */
static char *cartman[] = {
/* columns rows colors chars-per-pixel */
"64 64 9 1 ",
"  c None",
". c #080A0F",
"X c #16161B",
"o c #603C20",
"O c #A12823",
"+ c #F9C629",
"@ c #3CB0DA",
"# c #D2B2A1",
"$ c #EAEDED",
/* pixels */
"                                                                ",
"                                                                ",
"                                                                ",
"                                                                ",
"                                                                ",
"                                                                ",
"                                                                ",
"                                                                ",
"                                                                ",
"                           XXXXXXXXXX                           ",
"                           X++++++++X                           ",
"                       XXXXX++++++++XXXXX                       ",
"                      XX@@@XXXXXXXXXX@@@XX                      ",
"                     XX@@@@@@@@@@@@@@@@@@XX                     ",
"                    XX@@@@@@++++++++@@@@@@XX                    ",
"                   XX@@@++++XXXXXXXX++++@@@XX                   ",
"                  XX@@@+XXXXX######XXXXX+@@@XX                  ",
"                 XX@@@+XX##############XX+@@@XX                 ",
"                 X@@@+XX################XX+@@@X                 ",
"                 X@@+XX##################XX+@@X                 ",
"                 X@+XX#####$$$$##$$$$#####XX+@X                 ",
"                 X+XX#####$$$$$$$$$$$$#####XX+X                 ",
"                 XXX#####$$$$$$$$$$$$$$#####XXX                 ",
"                 X#######$$$XX$$$$XX$$$#######X                 ",
"                 X#######$$$XX$$$$XX$$$#######X                 ",
"                 X#######$$$$$$$$$$$$$$#######X                 ",
"                 X########$$$$$$$$$$$$########X                 ",
"                 X########$$$$$##$$$$$########X                 ",
"                 X#########$$$$##$$$$#########X                 ",
"                 X############################X                 ",
"                 X############################X                 ",
"                 X###########XXXXXX###########X                 ",
"                 X..X######################X..X                 ",
"                X.OO.######################.OO.X                ",
"               X.OOOX......................XOOO.X               ",
"              X.OOOO.OOOOOOOOOO..OOOOOOOOOO.OOOO.X              ",
"              .OOOX.XOOOOOOOOOO..OOOOOOOOOOX.OOOO.              ",
"              .+++.OOOOOOOOOOOO..OOOOOOOOOOOX.+++.              ",
"              .+++.OOOOOOOOOOOO..OOOOOOOOOOOO.+++.              ",
"              .+++.OOOOOOOOOOOO..OOOOOOOOOOOO.+++.              ",
"              .....OOOOOOOOOOOO..OOOOOOOOOOOO.....              ",
"                  .OOOOOOOOOOOO..OOOOOOOOOOOO.                  ",
"                  XooooooooooooXXooooooooooooX                  ",
"                  XooooooooooooXXooooooooooooX                  ",
"                  XooooooooooooXXooooooooooooX                  ",
"                  XooooooooooooXXooooooooooooX                  ",
"                  XooooooooooooXXooooooooooooX                  ",
"                XXXXXXXXXXXXXXXXXXXXXXXXXXXXXXXX                ",
"                                                                ",
"                                                                ",
"                                                                ",
"                                                                ",
"                                                                ",
"                                                                ",
"                                                                ",
"                                                                ",
"                                                                ",
"                                                                ",
"                                                                ",
"                                                                ",
"                                                                ",
"                                                                ",
"                                                                ",
"                                                                "
};
