/* XPM */
static char *exit2[] = {
/* columns rows colors chars-per-pixel */
"64 64 6 1 ",
"  c #080A0F",
". c #16161B",
"X c #603C20",
"o c #556E1C",
"O c #734829",
"+ c #71BA1A",
/* pixels */
"++++++++++++++++++++++++++++++++++++++++++++++++++++++++++++++++",
"++++++++++++++++++++++++++++++++++++++++++++++++++++++++++++++++",
"++++++++++++++++++++++++++++++++++++++++++++++++++++++++++++++++",
"+++++++++++++++++++o+++++++o++++oo++++++++++++++++++++++++++++++",
"++++++++++++++++o++o+++++++o++++o++++++++++++++++o++++++++++++++",
"++++++o++++++++++++o+++++++o++++oo+++++++o+++o+++oo+++++++++++++",
"++++++.....................................................+++++",
"++++++.XXXXXXXXXXXXXXXXXXXXXXXXXXXXXXXXXXXXXXXXXXXXXXXXXXX.+++++",
"++++++.XOOOOOOOOOXOOOOOOOOOOOOOOOOOOOOOXXOOOOOOOOOOOOOOOOX.+++++",
"++++++.XOOOOOOOOXXOOOOOOOOOOOOOOOOOOOOOXOOOOOOOOOOOOOOOOOX.o++++",
"++++o+.XOOOOOOOOXOOOOOOOOOOOOOOOOOOOOXXXOOOOOOOOOOOOOOOOOX.o++++",
"++++oo.XOOOOOOOOXOOOOOOOOOO        OOXOOOOOOOOOOOOOOOOOOOX.o++++",
"+++++o.XOOOOOOOOXXOOOOO                   OOOOOOOOOOOOOOOX.oo+++",
"+++++o.XOOOOOOOOOXX                         OOOOOOOOOOOOOX.+o+++",
"++++++.XOOOOOOOOOO                           OOOOOOOOOOOOX.+o+++",
"++++++.XOOOOOOOOO                              OOOOOOOOOOX.+o+++",
"++++++.XOOOOOOOO                                OOOOOOOOOX.+++++",
"++++oo.XOOOOOOO                                 OOOOOOOOOX.+++++",
"++++o+.XOOOOOO                                   OOOOOOOOX.+++++",
"++++++.XOOOOOO                                   OOOOOOOOX.+++++",
"++++++.XOOOOO                                    OOOOOOOOX.+++++",
"++++++.XOOOOO                                    OOOOOOOOX.+++++",
"++++++.XOOOOO                                     OOOOOOOX.+++++",
"++++++.XXXXOO                                     OOOOOOOX.+++++",
"++++++.XOOXXX                                     OOOOOOOX.+++++",
"+++++o.XOOOOO                                     OOOOOOOX.+++++",
"+++++o.XOOOO                                      OOOOOOOX.+++++",
"+++++o.XOOOO                                      OOOOOOOX.+++++",
"++++++.XOOOO                                       OOOOOOX.+++++",
"++++++.XOOOO                                       OOOOOOX.+++++",
"++++++.XOOOO                                       OOOOOOX.+++++",
"++++++.XOOOO                                        OOOOOX.+++++",
"++++o+.XOOOO                                        OOOOOX.+++++",
"++++oo.XOOOO                                        OOOOOX.+++++",
"+++++o.XOOO                                          OOOOX.oo+++",
"++++++.XOOO                                          OOOOX.+o+++",
"++++++.XOOO                                           OOOX.+o+++",
"++++++.XOOO                                           XOOX.+o+++",
"++++++.XOOO                                           XXXX.+o+++",
"++++++.XOOO                                           OOOX.+++++",
"++++++.XOOX                                           OOOX.+++++",
"++++o+.XOXXO                                          OOOX.o++++",
"++++o+.XXXOO                                          OOOX.o++++",
"++++oo.XOOOOO                                         OOOX.o++++",
"+++++o.XOOOOOO                                       OOOOX.o++++",
"++++++.XOOOOOOO                                      OOOOX.+++++",
"++++++.XOOOOOOOO                                    OOOOOX.+++++",
"++++++.XOOOOOOOOOO                            OO  OOOOOOOX.+++++",
"++++++.XOOOOOOOOOOO                      OOOOOOOOOOOOOOOOX.+++++",
"++++++.XOOOOOOOOOOOOOO                 OOOOOOOOOOOOOOOOOOX.+++++",
"++++++.XOOOOOOOOOOOOOOOOO            OXXOOOOOOOOOOOOOOOOOX.+++++",
"++++++.XOOOOOOOOOOOOOOOOOOOOO       OOOXOOOOOOOOOOOOOOOOOX.+++++",
"++++++.XOOOOOOOOOOOOOOOOOOOOOOOOOOOOOOOXXOOOOOOOOOOOOOOOOX.++o++",
"++++++.XOOOOOOOOOOOOOOOOOOOOOOOOOOOOOOOOXOOOOOOOOOOOOOOOOX.++o++",
"++++++.XOOOOOOOOOOOOOOOOOOOOOOOOOOOOOOOOXOOOOOOOOOOOOOOOOX.++o++",
"++++++.XOOOOOOOOOOOOOOOOOOOOOOOOOOOOOOOOXOOOOOOOOOOOOOOOOX.++o++",
"++++++.XOOOOOOOOOOOOOOOOOOOOOOOOOOOOOOOOXOOOOOOOOOOOOOOOOX.++o++",
"++++++.XXXXXXXXXXXXXXXXXXXXXXXXXXXXXXXXXXXXXXXXXXXXXXXXXXX.+++++",
"++++++.....................................................+++++",
"++++++++o+++++++++++++++++++++o++++++oo++++o++++++++++++++++++++",
"++++++++oo++++++++++++++++++++oo++++++o++++oo+++++++++++++++o+++",
"+++++++++++++++++++++++++++++++o++++++++++++o+++++++++++++++o+++",
"++++++++++++++++++++++++++++++++++++++++++++++++++++++++++++o+++",
"++++++++++++++++++++++++++++++++++++++++++++++++++++++++++++++++"
};
