/* XPM */
static char *exit1[] = {
/* columns rows colors chars-per-pixel */
"64 64 5 1 ",
"  c #16161B",
". c #603C20",
"X c #556E1C",
"o c #734829",
"O c #71BA1A",
/* pixels */
"OOOOOOOOOOOOOOOOOOOOOOOOOOOOOOOOOOOOOOOOOOOOOOOOOOOOOOOOOOOOOOOO",
"OOOOOOOOOOOOOOOOOOOOOOOOOOOOOOOOOOOOOOOOOOOOOOOOOOOOOOOOOOOOOOOO",
"OOOOOOOOOOOOOOOOOOOOOOOOOOOOOOOOOOOOOOOOOOOOOOOOOOOOOOOOOOOOOOOO",
"OOOOOOOOOOOOOOOOOOOXOOOOOOOXOOOOXXOOOOOOOOOOOOOOOOOOOOOOOOOOOOOO",
"OOOOOOOOOOOOOOOOXOOXOOOOOOOXOOOOXOOOOOOOOOOOOOOOOXOOOOOOOOOOOOOO",
"OOOOOOXOOOOOOOOOOOOXOOOOOOOXOOOOXXOOOOOOOXOOOXOOOXXOOOOOOOOOOOOO",
"OOOOOO                                                     OOOOO",
"OOOOOO ................................................... OOOOO",
"OOOOOO .ooooooooo.ooooooooooooooooooooo..oooooooooooooooo. OOOOO",
"OOOOOO .oooooooo..ooooooooooooooooooooo.ooooooooooooooooo. XOOOO",
"OOOOXO .oooooooo.oooooooooooooooooooo...ooooooooooooooooo. XOOOO",
"OOOOXX .oooooooo.oooooooooooooooooooo.ooooooooooooooooooo. XOOOO",
"OOOOOX .oooooooo..oooooooooooooooooo..ooooooooooooooooooo. XXOOO",
"OOOOOX .ooooooooo..ooooooooooooooooo.oooooooooooooooooooo. OXOOO",
"OOOOOO .oooooooooo..oooooooooooooooo.oooooooooooooooooooo. OXOOO",
"OOOOOO .ooooooooooo..oooooooooooooo..oooooooooooooooooooo. OXOOO",
"OOOOOO .oooooooooooo.oooooooooooooo.ooooooooooooooooooooo. OOOOO",
"OOOOXX .oooooooooooo..ooooooooooooo.ooooooooooooooooooooo. OOOOO",
"OOOOXO .ooooooooooooo.ooooooooooooo.ooooooooooooooooooooo. OOOOO",
"OOOOOO .ooooooooooooo..ooooooooooo..ooooooooooooooooooooo. OOOOO",
"OOOOOO .oooooooooooooo.ooooooooooo.oooooooooooooooooooooo. OOOOO",
"OOOOOO .oooooooooooooo..oooooooooo.oooooooooooooooooooooo. OOOOO",
"OOOOOO .ooooooooooooooo.ooooooooo..oooooooooooooooooooooo. OOOOO",
"OOOOOO ....oooooooooooo.ooooooooo.ooooooooooooooooooooooo. OOOOO",
"OOOOOO .oo....ooooooooo..ooooooo..ooooooooooooooooooooooo. OOOOO",
"OOOOOX .ooooo...oooooooo..ooooo..oooooooooooooooooooooooo. OOOOO",
"OOOOOX .ooooooo...ooooooo...oo..ooooooooooooooooooooooooo. OOOOO",
"OOOOOX .ooooooooo....oooooo.o..oooooooooooooooooooooooooo. OOOOO",
"OOOOOO .oooooooooooo...oooo...ooooooooooooooooooooooooooo. OOOOO",
"OOOOOO .oooooooooooooo.......oooooooooooooooooooooooooooo. OOOOO",
"OOOOOO .oooooooooooooooooo..........ooooooooooooooooooooo. OOOOO",
"OOOOOO .oooooooooooooooo...o..ooooo......oooooooooooooooo. OOOOO",
"OOOOXO .ooooooooooo......oooo.oooooooooo...oooooooooooooo. OOOOO",
"OOOOXX .oooooooooo..ooooooooo.oooooooooooo...oooooooooooo. OOOOO",
"OOOOOX .oooooooo...oooooooooo.oooooooooooooo..ooooooooooo. XXOOO",
"OOOOOO .ooooooo..oooooooooooo..oooooooooooooo...ooooooooo. OXOOO",
"OOOOOO .oooooo..oooooooooooooo..ooooooooooooooo....oooooo. OXOOO",
"OOOOOO .ooooo..oooooooooooooooo.oooooooooooooooooo.....oo. OXOOO",
"OOOOOO .oooo..ooooooooooooooooo..ooooooooooooooooooooo.... OXOOO",
"OOOOOO .ooo..ooooooooooooooooooo..ooooooooooooooooooooooo. OOOOO",
"OOOOOO .oo..ooooooooooooooooooooo..oooooooooooooooooooooo. OOOOO",
"OOOOXO .o..ooooooooooooooooooooooo.oooooooooooooooooooooo. XOOOO",
"OOOOXO ...oooooooooooooooooooooooo..ooooooooooooooooooooo. XOOOO",
"OOOOXX .ooooooooooooooooooooooooooo..oooooooooooooooooooo. XOOOO",
"OOOOOX .oooooooooooooooooooooooooooo.oooooooooooooooooooo. XOOOO",
"OOOOOO .oooooooooooooooooooooooooooo.oooooooooooooooooooo. OOOOO",
"OOOOOO .oooooooooooooooooooooooooooo..ooooooooooooooooooo. OOOOO",
"OOOOOO .ooooooooooooooooooooooooooooo..oooooooooooooooooo. OOOOO",
"OOOOOO .oooooooooooooooooooooooooooooo.oooooooooooooooooo. OOOOO",
"OOOOOO .oooooooooooooooooooooooooooooo.oooooooooooooooooo. OOOOO",
"OOOOOO .oooooooooooooooooooooooooooooo..ooooooooooooooooo. OOOOO",
"OOOOOO .ooooooooooooooooooooooooooooooo.ooooooooooooooooo. OOOOO",
"OOOOOO .ooooooooooooooooooooooooooooooo..oooooooooooooooo. OOXOO",
"OOOOOO .oooooooooooooooooooooooooooooooo.oooooooooooooooo. OOXOO",
"OOOOOO .oooooooooooooooooooooooooooooooo.oooooooooooooooo. OOXOO",
"OOOOOO .oooooooooooooooooooooooooooooooo.oooooooooooooooo. OOXOO",
"OOOOOO .oooooooooooooooooooooooooooooooo.oooooooooooooooo. OOXOO",
"OOOOOO ................................................... OOOOO",
"OOOOOO                                                     OOOOO",
"OOOOOOOOXOOOOOOOOOOOOOOOOOOOOOXOOOOOOXXOOOOXOOOOOOOOOOOOOOOOOOOO",
"OOOOOOOOXXOOOOOOOOOOOOOOOOOOOOXXOOOOOOXOOOOXXOOOOOOOOOOOOOOOXOOO",
"OOOOOOOOOOOOOOOOOOOOOOOOOOOOOOOXOOOOOOOOOOOOXOOOOOOOOOOOOOOOXOOO",
"OOOOOOOOOOOOOOOOOOOOOOOOOOOOOOOOOOOOOOOOOOOOOOOOOOOOOOOOOOOOXOOO",
"OOOOOOOOOOOOOOOOOOOOOOOOOOOOOOOOOOOOOOOOOOOOOOOOOOOOOOOOOOOOOOOO"
};
