/* XPM */
static char *grass[] = {
/* columns rows colors chars-per-pixel */
"64 64 253 2 ",
"   c #D2CEBF",
".  c #D5CFC1",
"X  c #D5D1C2",
"o  c #D6D1C3",
"O  c #D7D1C3",
"+  c #D5D2C3",
"@  c #D6D2C2",
"#  c #D7D2C3",
"$  c #D7D3C3",
"%  c #D5D1C4",
"&  c #D6D1C4",
"*  c #D7D1C4",
"=  c #D7D1C5",
"-  c #D6D2C4",
";  c #D7D2C4",
":  c #D7D3C4",
">  c #D6D2C5",
",  c #D7D2C5",
"<  c #D7D3C5",
"1  c #D7D2C6",
"2  c #D7D3C6",
"3  c #D7D4C5",
"4  c #D6D4C6",
"5  c #D7D4C6",
"6  c #D7D5C7",
"7  c #D8D1C4",
"8  c #D8D2C4",
"9  c #D8D3C4",
"0  c #D9D3C4",
"q  c #D8D2C5",
"w  c #D9D2C5",
"e  c #D8D3C5",
"r  c #D9D3C5",
"t  c #D8D2C6",
"y  c #D8D3C6",
"u  c #D9D3C6",
"i  c #D8D3C7",
"p  c #D9D3C7",
"a  c #DAD3C6",
"s  c #DAD3C7",
"d  c #DBD3C7",
"f  c #D8D4C4",
"g  c #D9D4C4",
"h  c #D9D5C4",
"j  c #D8D4C5",
"k  c #D9D4C5",
"l  c #D8D5C5",
"z  c #D9D5C5",
"x  c #DAD4C5",
"c  c #DBD4C5",
"v  c #DAD5C5",
"b  c #DBD5C5",
"n  c #DAD6C5",
"m  c #D8D4C6",
"M  c #D9D4C6",
"N  c #D8D5C6",
"B  c #D9D5C6",
"V  c #D8D4C7",
"C  c #D9D4C7",
"Z  c #D8D5C7",
"A  c #D9D5C7",
"S  c #DAD4C6",
"D  c #DBD4C6",
"F  c #DAD5C6",
"G  c #DBD5C6",
"H  c #DAD4C7",
"J  c #DBD4C7",
"K  c #DAD5C7",
"L  c #DBD5C7",
"P  c #D9D6C6",
"I  c #D8D6C7",
"U  c #D9D6C7",
"Y  c #D9D7C7",
"T  c #DAD6C6",
"R  c #DBD6C6",
"E  c #DBD7C6",
"W  c #DAD6C7",
"Q  c #DBD6C7",
"!  c #DAD7C7",
"~  c #DBD7C7",
"^  c #DCD5C7",
"/  c #DDD5C7",
"(  c #DCD6C6",
")  c #DCD6C7",
"_  c #DCD7C7",
"`  c #DDD7C7",
"'  c #DBD8C7",
"]  c #DCD8C7",
"[  c #D9D4C8",
"{  c #D9D5C8",
"}  c #D9D4C9",
"|  c #D9D5C9",
" . c #DAD4C8",
".. c #DBD4C8",
"X. c #DAD5C8",
"o. c #DBD5C8",
"O. c #DAD4C9",
"+. c #DBD4C9",
"@. c #DAD5C9",
"#. c #DBD5C9",
"$. c #D9D6C8",
"%. c #D9D6C9",
"&. c #DAD6C8",
"*. c #DBD6C8",
"=. c #DAD7C8",
"-. c #DBD7C8",
";. c #DAD6C9",
":. c #DBD6C9",
">. c #DAD7C9",
",. c #DBD7C9",
"<. c #D9D5CA",
"1. c #DAD5CA",
"2. c #DBD5CA",
"3. c #D9D6CA",
"4. c #DAD6CA",
"5. c #DBD6CA",
"6. c #DAD7CA",
"7. c #DBD7CA",
"8. c #DAD6CB",
"9. c #DAD7CB",
"0. c #DBD7CB",
"q. c #DCD4C8",
"w. c #DCD5C8",
"e. c #DDD5C8",
"r. c #DCD5C9",
"t. c #DDD5C9",
"y. c #DCD6C8",
"u. c #DDD6C8",
"i. c #DCD7C8",
"p. c #DDD7C8",
"a. c #DCD6C9",
"s. c #DDD6C9",
"d. c #DCD7C9",
"f. c #DDD7C9",
"g. c #DED7C8",
"h. c #DED6C9",
"j. c #DED7C9",
"k. c #DFD7C9",
"l. c #DCD6CA",
"z. c #DDD6CA",
"x. c #DCD7CA",
"c. c #DDD7CA",
"v. c #DDD6CB",
"b. c #DCD7CB",
"n. c #DDD7CB",
"m. c #DED7CA",
"M. c #DFD7CA",
"N. c #DED7CB",
"B. c #DDD7CC",
"V. c #DFD7CC",
"C. c #DAD8C8",
"Z. c #DBD8C8",
"A. c #DAD8C9",
"S. c #DBD8C9",
"D. c #DBD9C9",
"F. c #DBD8CA",
"G. c #DBD9CB",
"H. c #DCD8C8",
"J. c #DDD8C8",
"K. c #DCD9C8",
"L. c #DDD9C8",
"P. c #DCD8C9",
"I. c #DDD8C9",
"U. c #DCD9C9",
"Y. c #DDD9C9",
"T. c #DED9C8",
"R. c #DED8C9",
"E. c #DFD8C9",
"W. c #DED9C9",
"Q. c #DFD9C9",
"!. c #DEDAC9",
"~. c #DCD8CA",
"^. c #DDD8CA",
"/. c #DCD9CA",
"(. c #DDD9CA",
"). c #DCD8CB",
"_. c #DDD8CB",
"`. c #DCD9CB",
"'. c #DDD9CB",
"]. c #DED8CA",
"[. c #DFD8CA",
"{. c #DED9CA",
"}. c #DFD9CA",
"|. c #DED8CB",
" X c #DFD8CB",
".X c #DED9CB",
"XX c #DFD9CB",
"oX c #DCDACA",
"OX c #DDDACA",
"+X c #DDDACB",
"@X c #DDDBCB",
"#X c #DEDACA",
"$X c #DFDACA",
"%X c #DFDBCA",
"&X c #DEDACB",
"*X c #DFDACB",
"=X c #DEDBCB",
"-X c #DFDBCB",
";X c #DFDCCA",
":X c #DDD8CC",
">X c #DCD9CC",
",X c #DDD9CC",
"<X c #DDD8CD",
"1X c #DED8CC",
"2X c #DFD8CC",
"3X c #DED9CC",
"4X c #DFD9CC",
"5X c #DED8CD",
"6X c #DFD8CD",
"7X c #DED9CD",
"8X c #DFD9CD",
"9X c #DDDACC",
"0X c #DDDACD",
"qX c #DEDACC",
"wX c #DFDACC",
"eX c #DEDBCC",
"rX c #DFDBCC",
"tX c #DEDACD",
"yX c #DFDACD",
"uX c #DEDBCD",
"iX c #DFDBCD",
"pX c #DFDBCE",
"aX c #DFDCCC",
"sX c #DFDCCD",
"dX c #E0D9CB",
"fX c #E0DBCA",
"gX c #E0DACB",
"hX c #E1DACB",
"jX c #E0DBCB",
"kX c #E0D9CC",
"lX c #E1D9CC",
"zX c #E0D9CD",
"xX c #E0DACC",
"cX c #E0DBCC",
"vX c #E1DBCC",
"bX c #E0DACD",
"nX c #E1DACD",
"mX c #E0DBCD",
"MX c #E1DBCD",
"NX c #E0DACE",
"BX c #E1DACE",
"VX c #E0DBCE",
"CX c #E1DBCE",
"ZX c #E1DBCF",
"AX c #E0DCCD",
"SX c #E1DCCD",
"DX c #E0DCCE",
"FX c #E1DCCE",
"GX c #E1DDCE",
"HX c #E0DCCF",
"JX c #E2DCCF",
"KX c #E3DCCF",
"LX c #F4EFE1",
/* pixels */
"*.s.s.*.*.*.*.*.*X*.*.*Xs S.qXs.s.qXS.*X*X*Xs.*.qX0.*.*.9.*.R s.*X*.R *.*X*.qXs.s.qXS.*.*.R *.S.qX*.s.0.*.qXqXS.s.S.5 S.*.*.R B.",
"s.R *.s.*.*.*.*.*X*.*.qX*.*.s.9.*.*.s.qX*.*.qX*.S.*X*.S.*X*.qXR *.*.s.*.*.s *.*.R *.R *.*.qX*.R *.R s.*.} s.s.*.qXs.*.*.S.*.R s.",
"*.*XqX*X*X*.S.*.*.*.qXqX*X*.s.S.R *.R *.*XqX*X*X*XqX*X*.*XqXS.1 6 *.qX*XqX*.*.s.s.*XS.qXqX*XqX*X*.*.S.s.*X*.qXqX*.*.*.S.*.*.*.*.",
"*.*Xs.qXqXs.*.R *.*.*Xs *.5 R *.S.*X*.1 p R *.*.*.*.*.*.*XqXS.*.p *.qXqXqX*.*.S.*.*.S.*.qXqX*Xs.*.qXS.*.s.*.*.*XS.*.*.*.*.*.s.qX",
"*.1 *.*XqXs.*XR qXqX0.*.*.*.S.R *.s.*.*.*.*.*.1 *.*.CXqX*X*.S.*X*.S.*.*Xs.S.s.*Xs.s.R R *.0.*.*X0.*.1 *.*.S.s.S.*.*X*.S.6 R R *.",
"R *.qX9.S.S.S.*.*.s.s R *.*.*.*.R *.*.*X*.*.*.R qXs.qX9.s.) 9.R s.*.S.s.qXs.qXR *XqX*.5 R R *.1 qX*.*.*.*.*.*XqX*XDXqX*XqXs.qXs.",
"*.*.*.*.s.*.R s.*.qX*.R qXs.0.*X*XR 6 *.} p *XS.*X*.*.*.s.*.*.*.*.*.*Xs.*.qX*.*.*X*.CXCX*.*.S.R s.s.*.R 6 6 *.9.p *X*.1 s.*.*.qX",
"*.*.*.*.*X) s *.qX*X*.*.*.qXS.s.qXs.*X*.*.R S.@XR *.*.B.*XR 5 *.*.*.*XS.s.*.*.qXs.s R B.0.s s.qX9.*XR p *X*.s *.1 *.R 1 5 p s.qX",
"*X*.*.*X*XqX*.*.qX*X*.*.*X*.qX9.qX*X6 *.*.S.S.1 *X*X1 R *.*X*.R 9.*.qXs.*X*.*XS.*XqX*XCXqX*Xs.B.qXqX*.s.*.*.6 *.*XS.*.*.*XB.R qX",
"*.*.*.s.*Xs.*X*XdX*.s s.*.*.JXqXqX*.*.s.qX*.*.*.S.s.*.p s S.9.*.S.*X*XqXs.*.s.*.*.S.*X*Xp *.*.R qX6 *XqX*.*.B.*.s.qXR 1 *.*.*.qX",
"qX0.R *.R *.9.qXs.p p 6 S.S.qXp S.*X*.CX*X5 *.*.*.*.*.R *.B.*.qX*.*.R R *XS.R S.p *X*.1 *.qX*X*.s.R *.qX*.*.s.s.S.) p R *.*.*.qX",
"qX*.*XS.1 1 *.*.*X*XR R R R R p *.R R *.*.*.s.*X*.qXqX*.R *.R *.9.*.s.*.qXs.1 *.*.qXS.R *.*.S.*.*.*.qXS.*.*.*.s.*X*.*X*.s.*X*.*.",
"s.*XqX*.*XR 1 *.qX*.*XqX*.*.s s.*.*.*.s.*.*.p *.*.s.*Xs.s.*.*.*.*X*.pX*X*X*.1 s.R *.s.*.R 1 *.qXqX*.qXqXs.s.*XR *.qXs.R *.B.s.*.",
"qXs.CXqXs.*.R *.*.qX*.0.qX*.*.s.*Xs.B.s.*.*.R *.qXB.*.*.*.*.pXS.*.pXqX*.*.R R R p 5 *X*.R *.*X*.S.R *Xs.*Xs.pX] qXqX*.S.*.*.B.*.",
"*.*XJXqX*.R *.qXB.*.*.s B.qX*.R *.s.*.s.*.*.*.R qXS.*.s *.*.*.*XqX*X*.R *X*X*.1 *.*.*XqX*.*.*.*.p 1 *.*.o o qX*.B.qXqXs.s.s.*X6 ",
"*.*X*X*.*.*X9.qXS.*.*.s *.*.*.R *X*.qXs.qX*.*.*.B.6 *.*Xs.*X*.s.*XDX*X*XR 9.S.*X*X*.*.*XqX*.*.*.*.*.qXqX*.p *.qXqXs.qXs.qXqX*XS.",
"qX*.R s.*X*Xs.*Xs.S.S.*XqX*XqX*.*.*.S.*.qXqXs.*.1 S.R p s.s.R s.*.*X*X*Xs.*X*XS.qXqX*.R *.*.R *Xs.R *.5 *.*.*.*X*.qX*X*Xs.qX*.*.",
"0.s.*Xs.*.S.*.S.*.p s.*X*Xs.*.R *X*X*.6 *.qXqX*XS.*.*.*.B.S.*Xs.*XS.R 1 *.*X*X*XqX*.qXCXs.s.*.*.*XR *Xs.R *.*.*.qXqXqX9.*XR s *.",
"*.s.*.*XqX*.*.*XqX*.B.*.*.qX*.*.*.*.qX*.*.*.*.*XCX*.*X*Xs.*.*.p qX*.*.5 R 0.s.*.s.*XqXs.*.qXS.*XqX*.*.*XS.qX*X*.R *.*.*.S.*X*.*.",
"1 1 5 1 p o 1 R *X*.*.6 *.qX*.*.1 *.*.*.*.*.*.*.S.*.qX*.R *.*.p *.*.R R S.s.*.R *.0.*.R s *.*X*X*.R S.S.*.*.*.*.*.s *.*.qXqXS.S.",
"R p S.*.*Xs.*X} p 1 5 R *.*.5 *X*.qX9.*.0.*X*.s.s.*X*.s.s 0.*.*.B.*XR *.qXR 1 R S.qX*X*.qX*.s.*.*.*.*.*.1 *.qX*.B.*X*.*.*.B.R *.",
"*X*X1 *.s.qX*X*X*.s.*XR *.*.R *.s.qXqX*.*.*.*.*.qXqX*.S.B.qXs *.*.*.*.*XR p 1 1 *.qXqX*XqXR s.*XqX*.qX*XR s.*.*.*.S.qX*.s.s.s.1 ",
"R *.R R S.*.*.S.*.qXqXo *.*XR *.*.*.*.*.s *X*.S.S.s.*.*.qXqX*.*.p *X0.B.s.1 *.*.*X9.s.*.pX5 *X*.qXs.qX*.*.S.S.*.qX*X*.*.0.qXS.*X",
"p qXDX*.*.*.*XS.S.R *X1 p *.5 o *X*XqX*.*X*XqXS.S.*.qXs.*.0.6 *.*XB.*Xs.*.*.qXqXR R *XR S.*.qXqXB.s.s.*.qX9.qX*XqX*X*.s.R *.*X*.",
"R *X*Xs.*.s.*.*.S.*X*.B.*.*.qX*.*.*.1 S.qX*.*.*.0.S.*.9.*X*.*.*.R 1 *.qXB.CXCX*X*XR 6 *.*.*XqXS.qXs.*.p *.*X) S.*.s.*.qXDX*.*XqX",
"*.qX*X*.s.s.qXs.0.qXS.S.*X*X*X*X5 *.1 *.*.R *.s.s.*XR *XqXqX*.qXR o *.*.qXqX*.p *.*.qX*.s *.*.*.*.qX*.. *X*.R *.*.*Xs.*X*.*.qXs.",
"B.*.*.*.s.qXqX*.5 *.qXqXCXS.p qXp *X*.S.R R s.CX*.*X*.*.*.*.*.*XqX*.*.*.*.*.*.*.6 *.*X*.*.S.qXqXB.DX*.R R *.*.*.*.*.6 s.R p qXs.",
"s.*.s *.*.S.*.*.s.*.qXs.*X*X) qX*.*X*.S.*XR R qX*XqX9.S.*.R *.*.s.*.qXqX*X*.qXqXR *X*X1 s *X*.s.R *XqX*.*.qXR R *.*.1 *X*.R qXqX",
"s.*X*.*.*X*X*.*XqXqXqXR S.*XqX*.o p 5 *.*XS.S.qXqXqX*.s.9.s.*.*X*XDX*.*X*X*.s *.*.s.*.1 *.qX*X*.*.qXqXs.*.*.*.1 *.qX*.qX*X*.qXs.",
"*X9.*Xs.0.*XJX0.*Xs.pXs.*.*.s.p *.*.S.*XqX*.*X*XqXR *.qXCXqX*.qXDXqXS.s.*.*.qX*.R *.*.R s.qXqX*X*.S.*.*.s *.1 s *.*X*.qXqXs.s.s.",
"*.s.*XqXB.*.*X*.*.*X*.*XqX*.S.*.s.s.*X*.s.*.*X*Xs.*.*.*.*.*.S.*.*.S.qXCX*.*XCX*.R *XqXs.*.qXqX*.9.*.*.1 *.*.R 5 *.S.*.*.qX*.*.*.",
"s qXqX*.*.*.*.5 pXqXS.9.s.*.qXqX*X*.S.*.1 R 0.*.*.*.*.qXs.s.s.*.5 *.*.qXqXqXs.R s.qXqXS.*.qX*.*.S.*.*.*.*.R 5 R 1 R *.*.*.S.S.*.",
"qX*.qX*.*.*Xs.1 *.*.*.s.5 1 *.*.S.R 0.s.S.*.R qX*.*.qX*.s.s.*.*.*Xs.s.S.qXs.*X*X*.1 p ) *XS.5 p *XR 1 R qX*.1 5 *.R qXs.5 *XR 1 ",
"*.*.qXqX*X*Xs.*.*.*.R *.s.s.1 *.S.*.s.*.*.*.*.9.pXqX*.*.S.qX*.*.*.qXqX*.s qXR 1 R p s.*XqX*.' *.p R *.qXqX*X*.*.*.*.*.*.s.qXqXS.",
"s.qX*.*XqX*.*.*X*.*.s.*X*.*X*.*.S.*X9.*.*XqX*X*.S.*X*XS.*.1 R *.qXs.qXs.R *X*.5 R qXqXqXs.*X*.*.*.qXqXqX*X*.*.*.S.R 1 R qXs.*.S.",
"*X1 R *.qXs.*.R *.*XqXqX*.*XCXqX*XqXqX*.s *.*.} R *X*Xs.R 1 1 *.*.p 1 *XqX*XR *X*Xs.qXqX) *.s.*.*.S.*.*.*X*.1 *X*.*.*XR qX*.R *X",
"s.R *.s.R *.S.*.qX*X*.*.qXqXCXqXR *.*.*.p S.S.S.*.s.*.S.*X*.} *.*.*.s.9.B.*.*.*.1 *XS.*.*.*X*.*X*XqX*.1 *X*.s R qXqXqXS.B.*.s.*.",
"qX*X*.*X*.s.qXs.*.S.*X*.*XCX*.*X0.*.s.B.S.B.*X*.*X*.*.S.*.*.R *.S.*.qX*.*X*X*X*.*.*.*XB.qXS.*.1 qX*.*.*.qX*.*.*.*X*X*.*.R p *.p ",
"9.s.*.*.5 *.s.qX*.*.*.*.qXB.s.*.dXS.*.*X*.*.p *.qX*Xs.*X0.*.*.*.qXs.*.*.9.*Xs.*.*X*Xs.R *.s.*.*.s.*.*.qXqXs.*XqX*.*.qX*.S.*.*Xo ",
"qXS.6 1 *.S.*.5 *X*.qX*.qXS.qX*.*X1 1 *.1 R R R *XqX*.*.*X*.S.1 *XS.*.*XqX*.*.*XB.*.*.*.0.qXR *.*.*.qX*.*.*.*XS.1 qXpXs.B.R s.) ",
"S.R *.s.qX*XR S.R *.*.qX*.*.*.*.*XR *.qX*.*.*.s.*.1 5 qXs.*.R *.s.*.B.s.*.*.qX*XB.S.S.qX*X*.qXs.qX*.*.pXqX*.S.*X*.s.qX*.*.*.*.qX",
"*.s.R 1 *.*X5 *.s.*Xs.B.*.*.qX*.qXR R *.S.*.1 qX*.*.R *.S.R S.R S.R *.qXqXS.qX*.qX*Xs.qX*.*XqXqXCX*XB.*.qX*.R *.*.*X*.*.qXs.*.s.",
"s.S.S.s 1 6 p R *.*.*.*X*.0.*XqXqXqX*.S.qX*.*.*.*XS.R p *.*.*X*.*.*.qX*Xs.*.*X*XqXS.S.*X*.S.R 1 s.*.*.*.0.s.R 6 *X*.*.*.qX*.*XR ",
"*X*XqX*.s.S.*.*.S.*.*.*XqXB.*.0.p *.*.*.0.*.*.*.*.s.0.*.5 *XS.5 qXs.qXs.*.*.*.0.*X*X*.*.*.*.R *X*.S.S.*.*.*.1 *.*Xs.S.*.*.*.R *.",
"9.S.*Xs.S.*Xs.R *.*.*.B.*.*.R p qXR R *X0.*X*X1 *.S.qX*.s.S.*.5 *.*.S.*.S.*.1 *X*.*X9.*.S.5 p *.B.*.s.*XR 1 *.*XqXS.*.R *.s.*.*.",
"qXs.R qX*X*X*Xs.*.qXqXs.qXB.*.s.S.*.*.S.*.S.] p s.*.*.*XqX*X*.*X} R R *.*.*X*.*X*.*XqXs.s.1 *.R qXs.*.*.*.5 *.R s *.B.*.qXqXs.s.",
"*Xs.*.*.s.S.*X*.*.*X*.p B.S.R s.*.qXs.R *.*XS.*XR 1 *.*.*.*Xs.*XS.*XS.B.*.*.*.*.*.*.qX*.R R *.o S.*.*.*.*.*.*Xs.s.qX*.S.R R *.qX",
"*.qXS.9.S.R *.1 *.*.*.qXqX*.*X*XpXqXS.p S.*.*.*X*X*.s.*X*.p R p *.qXS.*.s.*.qXp 5 *.qXqX*.*X1 1 qX*.0.*.*.*X*.*.qXS.*.R 1 o 1 B.",
"*.*XR s p p R S.R R qXS.s.qX*X*.S.qXqX*.s.1 *X*.*.S.qX5 R 1 p *.qX*.R S.*Xs.*.*.*.*.*.B.*X*.R *.*.1 R 9.R *.*.*.*.*.R *.5 *.*.R ",
"*.s.s.B.*.*XqXqX1 R S.*.s.S.*.qX*XCXqX1 R R 9.*.*.R *.*.qX1 o R *.*.*Xs.*.*X9.*X*X*X*XqXp   1 qXqX*.*.*.p *.*.*.*.0.B.qXo p R *.",
"*.*.*.S.R s.qX*X*X*XqXs.qXS.s.*X1 *.*.p qX*.s.*X*XS.p *.qXS.*XCX*.9.*X*XS.*.S.s.*.s.R 1 . o *XCXqXB.s.s.*.1 p *X0.*.*Xs.*.s.*.9.",
"*.R *X*.*.*X*X*.qXs.*.R *.*.R *.p s R *.qXs.R *.s.qX*.*.*.*.*X9.qXqX*.p p *.s.*.qX0.R p 1 *.9.*.s.*.qX*X6 R R S.*X*.*.p 9.qX*XS.",
"*X*.*.*X*.*.*XS.*.*Xs.s *.*.s.S.qXdX*.*.*.*.*.R R S.0.*.s.qX*X*.*Xs.*.*.S.*.*.*Xs.S.*.*Xs.qX*.S.s.*.*.*.*.*.*.s.*X*.qXs.qX*.*.qX",
"qX*.*.*.*.s.9.s.*.s.s.*.*.B.*Xs.qX*X*.*.R p qX*X*.R *.*.*.*X*XqX*.*X*XS.*.*.*X*.*X1 R *.qX*.B.s.*.s.s.s.*.R 5 s.*.s.s.qX*Xs *.S.",
"R R qX*X*.s.*.S.*.s.*.*.s.s.S.s.*Xs.*.*XS.*.qX*X*XqX*X*X*X*X*.*X*XqX*XR qXp *X*.*X*.*.S.R R *.*X*.*X0.*.1 *.*.s.1 *.*XR *.qX*.*.",
"*.*.qXB.*.5 *.*XS.*X*.*.qXqX*XqXqX*.1 qXqX*.*.*.*X*.R p s.*.*.S.*.1 *.qXDX0.*.qXqX*.qXqXS.1 *.qX*.*.*X6 1 *.qX*XR R s.s.*.*.*.s.",
"*.R *X1 *.*.*.*.s.S.*.S.*Xs qXqX*.qXs.p p s.9.S.' *XS.*XqX*X*X1 *.qX*.qX*X*.*.*.*.R *.1 R S.s.*XS.S.qXqX*.0.s.*.s } 6 *.0.*.qXqX",
"s.*XR *.R *.*X1 qX*X*.*.s.*.s.5 1 *.S.R S.s.s.S.CXdXs.*X*.*.*.R *.S.*XB.qXR *.s.*.*.*.s *.qXqXqX*X*.s.S.*.*.*.*X*.R *.*.*.qXqXs.",
"s.qX*Xs.*.s.*XR *.*.*.*XS.qXR *.p *.s.p *X*X*.*XR qX*Xs.*.*.*.*X*X*.*.*.s.*.*.*.R R qXs.CXs.S.*.s.p *X*.s.s.*.*.*.*.*.R 5 *.*XR ",
"*.*XqX*.1 *.R 1 *.*X9.*.*.*.R *.*.qXS.R *.*.*.*.R s.qX9.qXR *.qX*.0.*.s.*X*.S.*X1 *.*.*.*.R *.*.*.R s.*.*.s R *.} s *.B.*.1 *.R ",
"*X*.1 1 *.} *.1 s.*.s.*X*.S.*.s.*.*.*XB.*.*.*.*.*.@X*Xs.B.*.1 p s.s.*X*.s.6 qXs.R *.*XR *.*X*.s.*.*.*.*.R s *.s.*.*.*.*.*.*.*XR ",
"*.R qXS.*.R qXS.*.*.*.5 *.*.qXqX*Xs.qXqX9.*X*.s.*.qX*.*.S.s.*.*.*Xp R s.s.*X*.s.*XCXqX*.S.B.6 *.s.S.R *.qX*Xs.*.qX*.*.*.*X6 5 qX",
"*.R *XS.B.*.B.*X6 *.*.1 s.qX*.*.DX*.qX*.qXs.*X*.qX*.*.s.*X*.S.*.CXs.p p qXqXR *.qXs.*.R *.*.*.s.qX0.*.*.qXs.*XDXp R *.s.S.R R 1 ",
"*X*X*X*X*.*.*.*.*.s.*.qXqXqXs.s.9.*.*.*.*XR s.S.*.s.S.s.s.*.CXqX*XR R 1 *.6 *.R *X5 p 1 1 R *XB.s.0.*.*.B.*.R qXR s.qXqX*.R *.LX"
};
