/* XPM */
static char *wall[] = {
/* columns rows colors chars-per-pixel */
"64 64 70 1 ",
"  c #010101",
". c #060905",
"X c #090A06",
"o c #040708",
"O c #060A08",
"+ c #0C0E0B",
"@ c #110D0F",
"# c #0E120D",
"$ c #11130F",
"% c #0F1211",
"& c #121411",
"* c #151914",
"= c #1A1C16",
"- c #171C18",
"; c #1A1C19",
": c #24241D",
"> c #2B2521",
", c #363630",
"< c #3A3630",
"1 c #3D3F39",
"2 c #46433B",
"3 c #4B4741",
"4 c #4B4841",
"5 c #51524C",
"6 c #5E5D4F",
"7 c #5E5C54",
"8 c #686A61",
"9 c #79776C",
"0 c #7A7B71",
"q c #858578",
"w c #8D8A7C",
"e c #8D8E85",
"r c #918E84",
"t c #9D9F8C",
"y c #A29D91",
"u c #A7A397",
"i c #A8A498",
"p c #B5AE9F",
"a c #B0AEA2",
"s c #C2C2AF",
"d c #C4C0B1",
"f c #CDC3B7",
"g c #C7C5B8",
"h c #CECABC",
"j c #D3CEBD",
"k c #D7D2BE",
"l c #D4CEC2",
"z c #D6D2C4",
"x c #DAD5C6",
"c c #DBD8C7",
"v c #D6D3C8",
"b c #DCD6C9",
"n c #DDD9CB",
"m c #E0DBCD",
"M c #E2DDD0",
"N c #E3E0D1",
"B c #EAE5D6",
"V c #EAE6DA",
"C c #EBE8DD",
"Z c #F3EEDD",
"A c #EFECE2",
"S c #F2EEE0",
"D c #F5F2E5",
"F c #F6F3EA",
"G c #FAF6EB",
"H c #F7F8ED",
"J c #FBF9EE",
"K c #FBF5F1",
"L c #FDFDF4",
"P c #FEFEFA",
/* pixels */
"bxbbbnnxbnnmnbnbbxbbnnnbbnbnnnnbnnnbbnnnbbbbbbbnbbnbnbxnbnmnmmnb",
"bbnnbzxnbnxnnxbmnbnnmvxnnbnnbxbbnnnnbbmnbxbzxnnbbbnnnbbnxxxnmnnb",
"nnnnbznnnnxxnnbmxxxmbbbnnbnbbzxbnnnnxxnxbbvvnnnxnxnnnxbbmxxxbxxn",
"nbbbnvbzxnnxnbnxxxnnxxnbbnnbbxzxbnnnbnnnnnnnxnnnxbnnnbxnmnnnnxzn",
"bnbbcbbbbnzbnxnxxbmnbmbxbbnnbnbnbxnnbbbbbcnnbbnbnnnmnxxxbxbnnnnx",
"nbxxzbbnbnbzbnnbnnxxbmmmbmmnbbbnmnxxxxvbzbnnnbnbbbmmxnnnnxxbxnbn",
"bnnxbbnbbbnbbmnmbbmxxnbxbbnnnbnnmnbvbnnxbnnnbnnnnnbxbbmnmnmmnnbn",
"xbbbbnnbbxbnbbbnmxbnnnmnbbnnnbbbxnnnbnnbnnnbnnnnbbbnbxbnnnnbbnbn",
"nnbnmbbnbnnbncbnmbbbbnbmbbcbnbbbnbnbmbxnbcnbbvcxnnnmbmmxnnnnnmxx",
"vnbbbbbbnnnbbnnbmbbbxmnmbxnnbbbnxbmmnnnnbbnbbbxnmnnmxbnbbxbmnnbb",
"mbnnbnnxnbbnnMnnxbxxbxnbnccbnbbxnbbbnnnxxbxbbbnnmnnbxxbnnbznmnnx",
"bnnnmnbbnbnnvbnnbnbvbbnxnbbbcbnnnbbnbnnbxxbxbnnbbxbnnxbnMxxxnmmn",
"bbnnbvbmnxnnbznbnnnvxxbxbbbnxxnnxnnnbnbnbxnnnnnzxbxnnmbbmxbbnmnb",
"mmmbbbmmmbxnncxcnnnnxzxnbbnnxxbnnxxbbbbbzbnzznnzbmnbbbbmnnbnnmmb",
"xxnmbnnnnxnnxxnnbnbbbnnnbbnnbxbnnnxbbbxnbnnbbnnnbnxnbbnbvbnbnmnm",
"xxmxnmmnmnnnmnnnbnnbnnnxbnnnbbncmnxbmbbxbbbbnnnnnnxxbbmmbbnnmbbn",
"bbnbxxxxbnbnnnnnnnbxxxxbnbnbxbbbbmxxxbmbnnbnxxmmnbxbbmxmbbnbxmnx",
"bxxbbnzxbnbbbbmnnnnnbnxnnnmbxnnzxnnbnxbnbnxnbzxnnbbbxbbmxxxnbxbb",
"nxbnnnxbbnnznbnnnmbxbnmmbnnbbbbxbbbnbxxnbnxbmbnnbxbxbbbmbbbbnxmb",
"bbmnnnxnbnxxbbbnnnnnnnnxxbbnbxbbxbnxnnbnbbxzbnnnbnnbbbbmbbbmnmbb",
"bnbbnnxnnnnxbnxnnbbbbmnzbbcnbbbbxbxbbbbbbbbbnbnnnnnnbbbbbbbxnbbb",
"bbbbbbnnbxnbnmxmbbzxbnnnbbzznbcbbxbbmbbbxbnmbbnxbbnnnnvnmxbxbzbn",
"mmnxxbnnbxxbnnxxbnxxbxbbbbnbbbbbxbnbbxmxzvmnbmnbbnnnnnvnbmxxbxxm",
"nnnxbnnnbbxbxnnxnbbbxbbxznnnnbzvbnmbxmxzmxbxxxnbbnnnnnbnbxbxmbbb",
"nnbxxbnbbnnbxbmbmbnxbbznnxzbbcbcnnbnmnnxnmnbbxxbxnnbxmxnxbbxbnnn",
"bnxbxzbxxnnnmxxxbxbbxxxmbbxnNbbbnnnbxbnbnnnbbnbbxxnnbbnnzbxnnbnn",
"mnxxbxxnnbnbmxbxbbbbnxbnnnnxbbbznbbxbnnbxbbbbnnnnnnnbbnnbxxmmnnm",
"mnbxnxxnmbzbbbbmnzbbnnbbbbnbvbzzbnbxnnxzxbnnnbnnMnbxmbxxnbxxnnnn",
"xnbxxxnbmbxxbxxmnnbcbbnxbbbnbbbbbnbnnnnnxxnnnnbbnnvbbxbbbbmmnnnn",
"xxmxbxxxbnmbmxxxnnnnnnnxbnnnncbnbbnnnbnbbbnmbcbxnbxbxnnnvbbbvbbn",
"xxnxnnbbnxxmmmbxbbbnnzznbxxnnbbnnxnnbbnbbxxbxxnxbbbbbmmbbbbbbbbn",
"xnnzxbxxxxxbxxxbbbbbxxnmnxxnbbnnnbbnbbbbzbbbxbbnbxnbxmmbbmbbnmmv",
"cnnzbxbvxnbbxzxnbnnnbbnnnbbbnbzbbnbbbbnzbbnnbnnnnzczbnnbnbxbbnmb",
"nmnnbnbnnbbxxxxnbnbnbnnbbnnxbbxbbbxnnnnbbbnnnnnnbbbbbnnnbbbnnbbb",
"nbbbnnnnnnnnbnznbnnnxbbnnnnbnbbbbbbbbnnbbbbnbbnnnbbbbbbbbcbnxbbx",
"xxxxnbnmbxnmbbbxbnnnzznnbbnnNnbnbbbxxbbnbnnnncnnnbbzccbnbbnnbnnn",
"nnbbbnnnxxxbbxbxnnnnbbbnnbbzbxcnnnxbbbbnnnbnbbnbbcnbbbnnxnmmnbxn",
"xnbxbxnnnbxbbbbxnbbbnnnnnnbbzbxbnnnnnbvnnnvnbbnbbbbbbbnbbnxbnbbn",
"bbbnbxnbxxbxcccxbbnnnbcbxxnmnnxbbbcbbnbbnbnnbvbbncbnbbnbbbxbxxnb",
"nbbnmbnnbbbbxzcnznbnzzbbbxnbbnbnbxbbbnnnnnbnbzbnbxbnbbnnmnxmxxnn",
"bbnbnnnbbbxbbbbnbbcxxzxbbbmnbxnbbnnnbbbxbbbbxnnxbmbmnbmbxnnnxxnn",
"bbnbnmnbxbbbbnbnnnbczxnxbnnnnxnbnnmnbnnbbxnbxxnnbbvxnbmxnxxnbnnn",
"cbbxnnbbnxxnbbbcnxbzlxnnbbmmnnnxnnnnmnnxxnnbxbbxnnbxbxnxnnnnnnbn",
"cbbnnnnbcxnnbnbbnxbbbnxnbbmbnnnbnbxnbxnbbbbbbbzzmnmbbmmbxbnnxnxn",
"xbxxxxnnnbxnxmxmmnmxxmmbnnxnnnbnnxxnbxnnxxbxbbbbxmxxbmmbmvnmxxbx",
"xmbxxxxnxnbnxxxnxmmnbxxmmnxnnnnxxxxxbbbxxxnbnxxbmxbbxmbbbmnbxxzx",
"nxxxbxxmbbmmxbmbxnxnbzlnmmbmbmnznmnnmnnbmmmbbbnbnnnbmzxmxxbxxmmm",
"nxxxnbxxmbbxbmbmxxbbnbbbxnmbbbbbmmnxbxnbnnnnmbbxbbbnmbbmxbmbbmnn",
"bnmnzmxnmxbbnxxnnbnnnbnbnnnnmbmbbbvbxbmbbbmbnmnmnnnbbbmmbvbxlxml",
"bxxbbnmnxmbxbbbbnMnbbbzbbnnnbzxxnmbnbmxbmbbmnbbbnmmnbbzmxbxxlmmx",
"nnnnmxxmnnbxbmbnnnnnnbbbbbnnxxzxmbmbmmbnxbbbmnbbnnmbbmmbmxmzzxxm",
"nbnnnnbbmmnbmnmxbnnnnbbxnnnnxmxzxbmbbxmbxmvxbbbxnnnbbnmmmbbmmxmm",
"bnmnbbbbnbnbxmbmbzznbbnbnncbxbxxbbbxbmxbbxxnbzzxnbbnbnnvxxnnmmxx",
"bnnbbnbbbmbbxbnnbvnbbbxbnbxxxxxnmbbbbnxxxxnmmbxxbnnnnbvnmmxblmmx",
"bbbnbnbbbbxxvbnbnnbMbbnnmnbbxxlxxxxxxxxnnnmnnnbxnbbnnnnnmbbbbmmb",
"bnbbnbnnnnbmbbbncnnnnbnnmnzlxmBZBBMblxbbxbmmxxxxbnnbnnnnnmbbbxxm",
"bbbnnnncbbcnbbxnnnnnvnnzjzDPPPJGFPLPPZbnbnnnbmnnbnnbbnnnbnbnbnbm",
"nnbbnnzbnbbnnmmmnnnnnnzmLPCr1$ o. O2tDPDkxnnxbcznmnnmmMnmnNbMMbn",
"nbbbnbxzbxzzzllzvnbmbzDLs,    .O.o    5MLDnbmmcnnnxcxbxblhjzlzNk",
"nnnnnxlbnCDJFFDZVmxznPA<  o*;;=**@**&o  2DJbznmbzvMHKLLLLLJGDmxH",
"bnxznBLLLDVndlVSHKPGLi  &*&&%&%%###$+&-X  iPVxnNGLLziw9780eaNJPP",
"bzmHLCy4=o      X:7zq  $*#&&@&#&&#&&*$#**  7LGGKp2X          $7>",
"mKPg2     #$&+.Oo    O**&&#&%$$&#%&&*&&@+$$ ;Jj=   X$***==;;O   ",
"Pf:  .#*==#+%&&$*=*#**#&&%$$&#$##$$&$*&&$+$@ *  #=&#*@$@&&$&$**&"
};
