/* XPM */
static char *wall[] = {
/* columns rows colors chars-per-pixel */
"64 64 2 1 ",
"  c #8F3D2F",
". c #CFD5D6",
/* pixels */
"       ..              ..              ..              ..       ",
"       ..              ..              ..              ..       ",
"       ..              ..              ..              ..       ",
"       ..              ..              ..              ..       ",
"................................................................",
"               ..              ..              ..               ",
"               ..              ..              ..               ",
"               ..              ..              ..               ",
"               ..              ..              ..               ",
"               ..              ..              ..               ",
"................................................................",
"       ..              ..              ..              ..       ",
"       ..              ..              ..              ..       ",
"       ..              ..              ..              ..       ",
"       ..              ..              ..              ..       ",
"................................................................",
"               ..              ..              ..               ",
"               ..              ..              ..               ",
"               ..              ..              ..               ",
"               ..              ..              ..               ",
"................................................................",
"       ..              ..              ..              ..       ",
"       ..              ..              ..              ..       ",
"       ..              ..              ..              ..       ",
"       ..              ..              ..              ..       ",
"       ..              ..              ..              ..       ",
"................................................................",
"               ..              ..              ..               ",
"               ..              ..              ..               ",
"               ..              ..              ..               ",
"               ..              ..              ..               ",
"................................................................",
"       ..              ..              ..              ..       ",
"       ..              ..              ..              ..       ",
"       ..              ..              ..              ..       ",
"       ..              ..              ..              ..       ",
"................................................................",
"               ..              ..              ..               ",
"               ..              ..              ..               ",
"               ..              ..              ..               ",
"               ..              ..              ..               ",
"               ..              ..              ..               ",
"................................................................",
"       ..              ..              ..              ..       ",
"       ..              ..              ..              ..       ",
"       ..              ..              ..              ..       ",
"       ..              ..              ..              ..       ",
"................................................................",
"               ..              ..              ..               ",
"               ..              ..              ..               ",
"               ..              ..              ..               ",
"               ..              ..              ..               ",
"................................................................",
"       ..              ..              ..              ..       ",
"       ..              ..              ..              ..       ",
"       ..              ..              ..              ..       ",
"       ..              ..              ..              ..       ",
"       ..              ..              ..              ..       ",
"................................................................",
"               ..              ..              ..               ",
"               ..              ..              ..               ",
"               ..              ..              ..               ",
"               ..              ..              ..               ",
"               ..              ..              ..               "
};
